<svg width="204" height="36" viewBox="0 0 204 36" fill="none" xmlns="http://www.w3.org/2000/svg">
<path d="M1.77149 11.0698C2.45873 11.0698 3.01585 10.5127 3.01585 9.82541C3.01585 9.13817 2.45873 8.58105 1.77149 8.58105C1.08425 8.58105 0.52713 9.13817 0.52713 9.82541C0.52713 10.5127 1.08425 11.0698 1.77149 11.0698Z" fill="#E14242"/>
<path d="M1.24436 15.2778C1.9316 15.2778 2.48872 14.7207 2.48872 14.0334C2.48872 13.3462 1.9316 12.7891 1.24436 12.7891C0.557119 12.7891 0 13.3462 0 14.0334C0 14.7207 0.557119 15.2778 1.24436 15.2778Z" fill="#E14242"/>
<path d="M3.30102 7.41426C3.98826 7.41426 4.54537 6.85714 4.54537 6.1699C4.54537 5.48266 3.98826 4.92554 3.30102 4.92554C2.61377 4.92554 2.05666 5.48266 2.05666 6.1699C2.05666 6.85714 2.61377 7.41426 3.30102 7.41426Z" fill="#E14242"/>
<path d="M19.1148 9.67866C19.802 9.67866 20.3591 9.12154 20.3591 8.4343C20.3591 7.74706 19.802 7.18994 19.1148 7.18994C18.4275 7.18994 17.8704 7.74706 17.8704 8.4343C17.8704 9.12154 18.4275 9.67866 19.1148 9.67866Z" fill="#E14242"/>
<path d="M26.2352 12.1152C26.9225 12.1152 27.4796 11.5581 27.4796 10.8708C27.4796 10.1836 26.9225 9.62646 26.2352 9.62646C25.548 9.62646 24.9909 10.1836 24.9909 10.8708C24.9909 11.5581 25.548 12.1152 26.2352 12.1152Z" fill="#E14242"/>
<path d="M25.7254 17.1357C26.4126 17.1357 26.9698 16.5786 26.9698 15.8913C26.9698 15.2041 26.4126 14.647 25.7254 14.647C25.0382 14.647 24.481 15.2041 24.481 15.8913C24.481 16.5786 25.0382 17.1357 25.7254 17.1357Z" fill="#E14242"/>
<path d="M22.554 24.7661C23.2413 24.7661 23.7984 24.2089 23.7984 23.5217C23.7984 22.8345 23.2413 22.2773 22.554 22.2773C21.8668 22.2773 21.3097 22.8345 21.3097 23.5217C21.3097 24.2089 21.8668 24.7661 22.554 24.7661Z" fill="#E14242"/>
<path d="M20.722 4.13911C21.4093 4.13911 21.9664 3.58199 21.9664 2.89475C21.9664 2.20751 21.4093 1.65039 20.722 1.65039C20.0348 1.65039 19.4777 2.20751 19.4777 2.89475C19.4777 3.58199 20.0348 4.13911 20.722 4.13911Z" fill="#E14242"/>
<path d="M23.8848 7.96723C24.572 7.96723 25.1291 7.41012 25.1291 6.72287C25.1291 6.03563 24.572 5.47852 23.8848 5.47852C23.1975 5.47852 22.6404 6.03563 22.6404 6.72287C22.6404 7.41012 23.1975 7.96723 23.8848 7.96723Z" fill="#E14242"/>
<path d="M12.4695 12.0029C13.1568 12.0029 13.7139 11.4458 13.7139 10.7585C13.7139 10.0713 13.1568 9.51416 12.4695 9.51416C11.7823 9.51416 11.2252 10.0713 11.2252 10.7585C11.2252 11.4458 11.7823 12.0029 12.4695 12.0029Z" fill="#E14242"/>
<path d="M17.5075 2.48872C18.1947 2.48872 18.7518 1.9316 18.7518 1.24436C18.7518 0.557119 18.1947 0 17.5075 0C16.8202 0 16.2631 0.557119 16.2631 1.24436C16.2631 1.9316 16.8202 2.48872 17.5075 2.48872Z" fill="#E14242"/>
<path d="M6.75756 4.13911C7.4448 4.13911 8.00192 3.58199 8.00192 2.89475C8.00192 2.20751 7.4448 1.65039 6.75756 1.65039C6.07032 1.65039 5.5132 2.20751 5.5132 2.89475C5.5132 3.58199 6.07032 4.13911 6.75756 4.13911Z" fill="#E14242"/>
<path d="M8.55497 33.1569C8.24388 33.1569 8.00192 32.9149 8.00192 32.6125V17.3L2.03937 10.8708C1.83198 10.6461 1.84062 10.2918 2.05665 10.0844C2.28997 9.87702 2.63562 9.88566 2.84302 10.119L8.96112 16.7124C9.05617 16.8074 9.10802 16.9457 9.10802 17.0753V32.6039C9.10802 32.9236 8.86606 33.1569 8.55497 33.1569Z" fill="#E14242"/>
<path d="M11.8646 35.9997C11.5535 35.9997 11.3116 35.7491 11.3116 35.4381V14.9666L2.91215 6.56719C2.69611 6.3598 2.69611 5.99686 2.91215 5.78947C3.12818 5.57343 3.47384 5.57343 3.68987 5.78947L12.2535 14.3531C12.3572 14.4568 12.4177 14.595 12.4177 14.7419V35.4381C12.4177 35.7405 12.1671 35.9997 11.8646 35.9997Z" fill="#E14242"/>
<path d="M15.5545 36.0001C15.2434 36.0001 15.0014 35.7495 15.0014 35.4384V7.79466C15.0014 7.64776 15.0533 7.50086 15.1656 7.4058L19.3221 3.24929C19.5382 3.0419 19.8838 3.0419 20.0999 3.24929C20.3159 3.46533 20.3159 3.81963 20.0999 4.02702L16.1075 8.02798V35.4384C16.1075 35.7409 15.8656 36.0001 15.5545 36.0001Z" fill="#E14242"/>
<path d="M19.0802 33.1571C18.7691 33.1571 18.5185 32.9238 18.5185 32.6127V18.0951C18.5185 17.9482 18.5876 17.81 18.6827 17.7149L25.881 10.5167C26.1056 10.292 26.4513 10.292 26.6673 10.5167C26.8834 10.724 26.8834 11.0783 26.6673 11.2944L19.6332 18.3285V32.6127C19.6332 32.9238 19.3913 33.1571 19.0802 33.1571Z" fill="#E14242"/>
<path d="M23.8934 13.8433C23.7465 13.8433 23.6083 13.8001 23.5046 13.6964L18.9333 9.12515C18.7172 8.90047 18.7172 8.55482 18.9333 8.33878C19.1407 8.12275 19.495 8.12275 19.7196 8.33878L24.2823 12.9014C24.4897 13.1261 24.4897 13.4631 24.2823 13.6964C24.1699 13.8001 24.023 13.8433 23.8934 13.8433Z" fill="#E14242"/>
<path d="M8.14019 11.3204C7.99328 11.3204 7.85502 11.2686 7.74268 11.1563C7.52665 10.9229 7.52665 10.5859 7.74268 10.3612L17.1791 0.924855C17.3951 0.700179 17.7494 0.700179 17.9654 0.924855C18.1815 1.14089 18.1815 1.48654 17.9654 1.70258L8.52905 11.1563C8.41671 11.2599 8.27845 11.3204 8.14019 11.3204Z" fill="#E14242"/>
<path d="M11.2165 8.22661C11.0783 8.22661 10.94 8.17476 10.8363 8.06242L6.96496 4.19108C6.74892 3.98369 6.74892 3.62075 6.96496 3.41336C7.17235 3.20596 7.52665 3.20596 7.74268 3.41336L11.614 7.2847C11.8214 7.49209 11.8214 7.85503 11.614 8.06242C11.5017 8.17476 11.3634 8.22661 11.2165 8.22661Z" fill="#E14242"/>
<path d="M11.2424 2.71333C11.9297 2.71333 12.4868 2.15621 12.4868 1.46897C12.4868 0.781728 11.9297 0.224609 11.2424 0.224609C10.5552 0.224609 9.99808 0.781728 9.99808 1.46897C9.99808 2.15621 10.5552 2.71333 11.2424 2.71333Z" fill="#E14242"/>
<path d="M14.1805 5.26279C14.0423 5.26279 13.904 5.21095 13.7917 5.09861L11.4498 2.75679C11.2338 2.5494 11.2338 2.20374 11.4498 1.98771C11.6659 1.77167 12.0202 1.77167 12.2362 1.98771L14.578 4.32952C14.7941 4.53692 14.7941 4.89986 14.578 5.10725C14.4657 5.21095 14.3188 5.26279 14.1805 5.26279Z" fill="#E14242"/>
<path d="M15.4854 14.2843C15.3385 14.2843 15.2002 14.2324 15.0965 14.1115L12.4695 11.4931C12.2535 11.2857 12.2535 10.9401 12.4695 10.724C12.6769 10.508 13.0312 10.508 13.2559 10.724L15.8742 13.351C16.0903 13.5584 16.0903 13.9127 15.8742 14.1201C15.7619 14.2324 15.6236 14.2843 15.4854 14.2843Z" fill="#E14242"/>
<path d="M19.037 14.6301C19.7242 14.6301 20.2813 14.073 20.2813 13.3857C20.2813 12.6985 19.7242 12.1414 19.037 12.1414C18.3497 12.1414 17.7926 12.6985 17.7926 13.3857C17.7926 14.073 18.3497 14.6301 19.037 14.6301Z" fill="#E14242"/>
<path d="M21.4952 16.0569C21.3569 16.0569 21.21 15.9964 21.1063 15.8841L19.162 13.9484C18.946 13.7237 18.946 13.3867 19.162 13.162C19.3781 12.946 19.7324 12.946 19.9484 13.162L21.8927 15.0977C22.1174 15.3224 22.1174 15.668 21.8927 15.8841C21.7804 15.9964 21.6421 16.0569 21.4952 16.0569Z" fill="#E14242"/>
<path d="M20.6615 10.6288C20.5146 10.6288 20.3764 10.577 20.2727 10.456C20.0566 10.2486 20.0566 9.89433 20.2727 9.66966L23.2712 6.67974C23.4959 6.45506 23.8416 6.45506 24.0576 6.67974C24.2736 6.89577 24.2736 7.24143 24.0576 7.45746L21.059 10.456C20.9467 10.577 20.7998 10.6288 20.6615 10.6288Z" fill="#E14242"/>
<path d="M8.54633 21.8975C8.40807 21.8975 8.2698 21.8456 8.15747 21.7333L0.846856 14.414C0.630821 14.2066 0.630821 13.861 0.846856 13.6449C1.06289 13.4289 1.40855 13.4289 1.63322 13.6449L8.94383 20.9555C9.15987 21.1629 9.15987 21.5259 8.94383 21.7333C8.84014 21.8456 8.69323 21.8975 8.54633 21.8975Z" fill="#E14242"/>
<path d="M3.51704 22.3554C4.20428 22.3554 4.7614 21.7983 4.7614 21.1111C4.7614 20.4238 4.20428 19.8667 3.51704 19.8667C2.8298 19.8667 2.27268 20.4238 2.27268 21.1111C2.27268 21.7983 2.8298 22.3554 3.51704 22.3554Z" fill="#E14242"/>
<path d="M8.53768 26.6848C8.39077 26.6848 8.25251 26.6243 8.14017 26.5119L3.11953 21.4999C2.9035 21.2839 2.9035 20.9296 3.11953 20.7222C3.33556 20.4975 3.68122 20.4975 3.9059 20.7222L8.9179 25.7342C9.13393 25.9416 9.13393 26.3046 8.9179 26.5206C8.8142 26.6243 8.67594 26.6848 8.53768 26.6848Z" fill="#E14242"/>
<path d="M19.1407 23.1849C18.9938 23.1849 18.8555 23.1331 18.7432 23.0208C18.5358 22.8047 18.5358 22.4504 18.7432 22.243L24.9909 16.004C25.1983 15.7793 25.5526 15.7793 25.7686 16.004C25.976 16.2113 25.976 16.557 25.7686 16.7817L19.5295 23.0294C19.4258 23.1331 19.2789 23.1849 19.1407 23.1849Z" fill="#E14242"/>
<path d="M19.0802 27.5487C18.9419 27.5487 18.795 27.5055 18.6913 27.3931C18.4753 27.1685 18.4753 26.8314 18.6913 26.6068L22.1738 23.1243C22.3812 22.9169 22.7355 22.9169 22.9602 23.1243C23.1676 23.349 23.1676 23.6946 22.9602 23.9193L19.4777 27.3931C19.3654 27.5141 19.2184 27.5487 19.0802 27.5487Z" fill="#E14242"/>
<path d="M48.7121 19.8872C48.3503 20.6366 47.8334 21.2051 47.1098 21.5411L49.2806 26.322C49.3582 26.4771 49.2548 26.6321 49.0997 26.6321H45.9211C45.8177 26.6321 45.766 26.5805 45.7402 26.5029L43.7244 22.1096H42.4064V26.3996C42.4064 26.5288 42.3031 26.6321 42.1739 26.6321H39.2019C39.0986 26.6321 39.021 26.5288 39.021 26.3996V9.80843C39.021 9.67922 39.0986 9.57585 39.2019 9.57585H44.5772C47.4458 9.57585 49.1773 11.2039 49.1773 14.2276V17.4838C49.1773 18.3883 49.0222 19.2411 48.7121 19.8872ZM45.7919 16.6826V15.0029C45.7919 13.1939 45.1199 13.013 43.1559 13.013H42.4064V18.7242H43.1559C44.784 18.7242 45.7402 18.6984 45.7919 16.6826ZM40.9076 25.0557V20.6366H44.6289L46.7997 25.1074C46.8514 25.2366 47.1615 25.1849 47.084 24.9524L44.9132 20.5591C46.9289 20.2748 47.6267 19.2152 47.6267 17.3029V14.0725C47.6267 11.2298 45.0424 10.9972 44.2413 10.9972H40.7525C40.7008 10.9972 40.5974 11.0747 40.5974 11.1523V25.0557C40.5974 25.2366 40.9076 25.2366 40.9076 25.0557ZM47.3166 14.0725V17.3029C47.3166 19.9388 45.6368 20.3006 44.0087 20.3006H40.9076V11.3332H44.2413C47.0323 11.3332 47.3166 13.2197 47.3166 14.0725ZM59.3594 9.34326C61.5819 9.34326 63.1324 9.83428 64.1145 10.8938C64.8897 11.7466 65.2515 12.9613 65.2515 14.6927V21.4894C65.2515 23.2726 64.8897 24.513 64.1145 25.34C63.1066 26.3737 61.5819 26.8906 59.3594 26.8906C57.0594 26.8906 55.5605 26.3737 54.5784 25.34C53.829 24.513 53.4155 23.2726 53.4155 21.4894V14.6927C53.4155 12.9613 53.829 11.7466 54.5784 10.868C55.5863 9.83428 57.111 9.34326 59.3594 9.34326ZM61.8144 20.7141V15.5456C61.8144 13.2714 60.5998 12.8062 59.4886 12.8062H59.1785C57.5245 12.8062 56.8785 13.8658 56.8785 15.5456V20.7141C56.8785 22.9883 58.0931 23.4793 59.1785 23.4793H59.4886C61.1425 23.4793 61.7886 22.3681 61.8144 20.7141ZM55.0436 14.8736V21.2827C55.0436 22.4973 55.3537 23.5052 56.0773 24.2546C56.7492 24.9265 57.783 25.2883 59.0493 25.2883H59.7212C62.1504 25.2883 63.7268 23.7377 63.7268 21.2827V14.8736C63.7268 12.2377 62.3313 10.8163 59.7212 10.8163H59.0493C56.4133 10.8163 55.0436 12.2377 55.0436 14.8736ZM59.7212 24.9524H59.0493C57.8346 24.9524 56.9301 24.6422 56.2841 23.9962C55.638 23.3501 55.302 22.4456 55.302 21.2827V14.8736C55.302 12.4186 56.62 11.1264 59.0493 11.1264H59.7212C62.1762 11.1264 63.3909 12.3927 63.3909 14.8736V21.2827C63.3909 22.3681 63.0549 23.3501 62.3571 24.022C61.6852 24.5906 60.7807 24.9524 59.7212 24.9524ZM77.9921 20.6624V9.80843C77.9921 9.67922 78.0955 9.57585 78.2247 9.57585H81.1708C81.3 9.57585 81.4034 9.67922 81.4034 9.80843V21.4894C81.4034 25.2108 79.3618 26.8906 75.5112 26.8906C71.8673 26.8906 69.5932 25.4434 69.5932 21.4894V9.80843C69.5932 9.67922 69.6965 9.57585 69.8257 9.57585H72.7977C72.9269 9.57585 73.0303 9.67922 73.0303 9.80843V20.6624C73.0303 22.9108 74.2966 23.4018 75.3561 23.4018H75.6662C77.2685 23.4018 77.9921 22.3164 77.9921 20.6624ZM71.1954 11.2298V21.2827C71.1954 23.6085 72.7718 25.2883 75.2269 25.2883H75.873C78.328 25.2883 79.9303 23.531 79.9303 21.2827V11.2298C79.9303 10.9972 79.6202 10.9714 79.6202 11.2298V21.2827C79.6202 23.4018 78.0955 24.9524 75.873 24.9524H75.2269C73.0561 24.9524 71.5055 23.5568 71.5055 21.2827V11.2298C71.5055 10.9972 71.1954 10.9972 71.1954 11.2298ZM93.1102 9.80843C93.1102 9.67922 93.2135 9.57585 93.3428 9.57585H96.3147C96.4439 9.57585 96.5473 9.67922 96.5473 9.80843V26.3996C96.5473 26.5288 96.4439 26.6321 96.3147 26.6321H93.4461C93.3428 26.6321 93.2394 26.5805 93.2135 26.5029L89.4405 18.0006V26.3996C89.4405 26.5288 89.3371 26.6321 89.2079 26.6321H86.2618C86.1326 26.6321 86.0551 26.5288 86.0551 26.3996V9.80843C86.0551 9.67922 86.1326 9.57585 86.2618 9.57585H89.3113C89.4146 9.57585 89.4663 9.65338 89.4922 9.70506L93.1102 18.0523V9.80843ZM94.9709 25.0816V11.1264C94.9709 10.9455 94.6349 10.8938 94.6349 11.1264V24.4097L87.8899 11.0747C87.8124 10.9714 87.6056 10.9714 87.6056 11.1264V25.0557C87.6056 25.2883 87.9158 25.2883 87.9158 25.0557V11.7983L94.6349 25.1074C94.7383 25.2883 94.9709 25.2366 94.9709 25.0816ZM108.073 9.57585C109.831 9.57585 111.148 10.0669 112.027 11.023C112.802 11.8759 113.19 13.1422 113.19 14.6927V21.5411C113.19 24.6681 111.381 26.6321 108.073 26.6321H101.612C101.483 26.6321 101.406 26.5288 101.406 26.3996V9.80843C101.406 9.67922 101.483 9.57585 101.612 9.57585H108.073ZM109.805 20.7658V15.468C109.805 13.8399 108.952 12.8062 107.143 12.8062H104.817V23.4018H107.143C108.693 23.4018 109.805 22.3939 109.805 20.7658ZM102.982 11.1523V25.0557C102.982 25.1591 103.086 25.1849 103.137 25.1849H107.35C110.322 25.1849 111.665 23.4018 111.665 21.7478V15.1321C111.665 12.3927 110.218 10.9972 107.272 10.9972H103.137C103.086 10.9972 102.982 11.023 102.982 11.1523ZM111.355 15.1321V21.7478C111.355 23.8153 109.288 24.9007 107.35 24.9007H103.292V11.3332H107.272C109.986 11.3332 111.355 12.5478 111.355 15.1321ZM124.38 9.57585C126.137 9.57585 127.455 10.0669 128.334 11.023C129.109 11.8759 129.497 13.1422 129.497 14.6927V21.5411C129.497 24.6681 127.688 26.6321 124.38 26.6321H117.919C117.79 26.6321 117.713 26.5288 117.713 26.3996V9.80843C117.713 9.67922 117.79 9.57585 117.919 9.57585H124.38ZM126.112 20.7658V15.468C126.112 13.8399 125.259 12.8062 123.45 12.8062H121.124V23.4018H123.45C125 23.4018 126.112 22.3939 126.112 20.7658ZM119.289 11.1523V25.0557C119.289 25.1591 119.392 25.1849 119.444 25.1849H123.656C126.628 25.1849 127.972 23.4018 127.972 21.7478V15.1321C127.972 12.3927 126.525 10.9972 123.579 10.9972H119.444C119.392 10.9972 119.289 11.023 119.289 11.1523ZM127.662 15.1321V21.7478C127.662 23.8153 125.595 24.9007 123.656 24.9007H119.599V11.3332H123.579C126.292 11.3332 127.662 12.5478 127.662 15.1321ZM134.226 26.6321C134.097 26.6321 134.019 26.5288 134.019 26.3996V9.80843C134.019 9.67922 134.097 9.57585 134.226 9.57585H137.172C137.301 9.57585 137.405 9.67922 137.405 9.80843V26.3996C137.405 26.5288 137.301 26.6321 137.172 26.6321H134.226ZM135.57 11.1264V25.0557C135.57 25.2883 135.854 25.2883 135.854 25.0557V11.1264C135.854 10.9455 135.57 10.9455 135.57 11.1264ZM147.509 20.4299C147.38 20.4299 147.277 20.3265 147.277 20.1973V17.4321C147.277 17.3029 147.38 17.1995 147.509 17.1995H153.427C153.557 17.1995 153.66 17.3029 153.66 17.4321V21.4894C153.66 25.2883 151.618 26.8906 147.768 26.8906C144.176 26.8906 141.824 25.4692 141.824 21.4894V14.6927C141.824 10.9455 143.917 9.34326 147.768 9.34326C151.386 9.34326 153.66 10.7388 153.66 14.6927V15.2354C153.66 15.3647 153.557 15.468 153.427 15.468H150.456C150.326 15.468 150.223 15.3647 150.223 15.2354V14.8995C150.223 13.3231 149.215 12.8062 147.897 12.8062H147.587C146.734 12.8062 146.166 13.0388 145.778 13.5557C145.416 14.0467 145.287 14.6927 145.287 15.5456V20.6624C145.287 22.9108 146.502 23.4018 147.587 23.4018H147.897C149.473 23.4018 150.223 22.3164 150.223 20.6624V20.4299H147.509ZM143.4 21.3085C143.4 24.1771 144.796 25.2366 147.742 25.2366C150.843 25.2366 152.109 23.9445 152.109 20.7658V18.8276C152.109 18.7501 152.058 18.6467 152.006 18.6467H148.414C148.181 18.6467 148.233 18.9827 148.414 18.9827H151.799V20.7658C151.799 23.531 150.74 24.9524 147.742 24.9524C145.261 24.9524 143.711 24.0737 143.711 21.3085V15.0804C143.711 12.4186 144.925 11.2298 147.742 11.2298C149.835 11.2298 151.748 12.3927 151.593 14.1759C151.593 14.3826 151.877 14.4343 151.929 14.2017C151.929 11.9276 149.861 10.9455 147.742 10.9455C145.158 10.9455 143.4 11.8759 143.4 15.0804V21.3085ZM158.26 26.6321C158.131 26.6321 158.053 26.5288 158.053 26.3996V9.80843C158.053 9.67922 158.131 9.57585 158.26 9.57585H161.206C161.335 9.57585 161.439 9.67922 161.439 9.80843V26.3996C161.439 26.5288 161.335 26.6321 161.206 26.6321H158.26ZM159.604 11.1264V25.0557C159.604 25.2883 159.888 25.2883 159.888 25.0557V11.1264C159.888 10.9455 159.604 10.9455 159.604 11.1264ZM168.856 12.8062H165.186C165.057 12.8062 164.953 12.7028 164.953 12.5736V9.80843C164.953 9.67922 165.057 9.57585 165.186 9.57585H175.962C176.092 9.57585 176.195 9.67922 176.195 9.80843V12.5736C176.195 12.7028 176.092 12.8062 175.962 12.8062H172.293V26.3996C172.293 26.5288 172.189 26.6321 172.06 26.6321H169.088C168.959 26.6321 168.856 26.5288 168.856 26.3996V12.8062ZM174.386 10.9972H166.581C166.401 10.9972 166.401 11.3332 166.581 11.3332H170.406V25.0299C170.406 25.2108 170.742 25.2108 170.742 25.0299V11.3332H174.386C174.644 11.3332 174.619 10.9972 174.386 10.9972ZM183.043 9.7309C183.069 9.65338 183.121 9.57585 183.224 9.57585H186.429C186.532 9.57585 186.584 9.65338 186.61 9.7309L191.081 26.3479C191.106 26.5029 191.003 26.6321 190.848 26.6321H187.902C187.824 26.6321 187.747 26.5805 187.721 26.4771L186.713 22.8591H182.94L181.958 26.4771C181.932 26.5805 181.88 26.6321 181.777 26.6321H178.805C178.65 26.6321 178.547 26.5029 178.573 26.3479L183.043 9.7309ZM183.767 19.6546H185.912L184.801 15.7523L183.767 19.6546ZM187.747 21.1793L188.936 25.0557C188.987 25.2108 189.272 25.1849 189.194 24.9782L185.059 11.2298C184.982 10.8938 184.542 10.868 184.465 11.2298L180.459 24.9782C180.382 25.1591 180.666 25.2366 180.743 25.0816L181.88 21.1793H187.747ZM181.958 20.8433L184.775 11.3332L187.643 20.8433H181.958ZM197.851 9.57585C197.981 9.57585 198.084 9.67922 198.084 9.80843V23.3759H203.666C203.795 23.3759 203.899 23.4793 203.899 23.6085V26.3996C203.899 26.5288 203.795 26.6321 203.666 26.6321H194.905C194.776 26.6321 194.699 26.5288 194.699 26.3996V9.80843C194.699 9.67922 194.776 9.57585 194.905 9.57585H197.851ZM196.249 11.1523V25.0557C196.249 25.1074 196.301 25.1849 196.404 25.1849H202.374C202.581 25.1849 202.581 24.849 202.374 24.849H196.533V11.1523C196.533 10.9714 196.249 10.9455 196.249 11.1523Z" fill="#393E46"/>
</svg>
