<svg width="205" height="36" viewBox="0 0 205 36" fill="none" xmlns="http://www.w3.org/2000/svg">
<path d="M49.6911 19.5439C49.3293 20.2933 48.8124 20.8619 48.0888 21.1978L50.2596 25.9788C50.3372 26.1338 50.2338 26.2889 50.0787 26.2889H46.9C46.7967 26.2889 46.745 26.2372 46.7191 26.1597L44.7034 21.7664H43.3854V26.0563C43.3854 26.1855 43.282 26.2889 43.1528 26.2889H40.1809C40.0775 26.2889 40 26.1855 40 26.0563V9.46517C40 9.33596 40.0775 9.23259 40.1809 9.23259H45.5562C48.4248 9.23259 50.1563 10.8607 50.1563 13.8843V17.1405C50.1563 18.045 50.0012 18.8978 49.6911 19.5439ZM46.7708 16.3394V14.6596C46.7708 12.8506 46.0989 12.6697 44.1349 12.6697H43.3854V18.381H44.1349C45.763 18.381 46.7191 18.3551 46.7708 16.3394ZM41.8865 24.7125V20.2933H45.6079L47.7787 24.7642C47.8304 24.8934 48.1405 24.8417 48.063 24.6091L45.8922 20.2158C47.9079 19.9315 48.6057 18.872 48.6057 16.9596V13.7292C48.6057 10.8865 46.0214 10.6539 45.2203 10.6539H41.7315C41.6798 10.6539 41.5764 10.7315 41.5764 10.809V24.7125C41.5764 24.8934 41.8865 24.8934 41.8865 24.7125ZM48.2956 13.7292V16.9596C48.2956 19.5956 46.6158 19.9574 44.9877 19.9574H41.8865V10.9899H45.2203C48.0113 10.9899 48.2956 12.8764 48.2956 13.7292ZM60.3383 9C62.5608 9 64.1114 9.49101 65.0934 10.5506C65.8687 11.4034 66.2305 12.618 66.2305 14.3495V21.1462C66.2305 22.9293 65.8687 24.1698 65.0934 24.9967C64.0856 26.0305 62.5608 26.5473 60.3383 26.5473C58.0383 26.5473 56.5394 26.0305 55.5574 24.9967C54.808 24.1698 54.3945 22.9293 54.3945 21.1462V14.3495C54.3945 12.618 54.808 11.4034 55.5574 10.5247C56.5653 9.49101 58.09 9 60.3383 9ZM62.7934 20.3709V15.2023C62.7934 12.9281 61.5788 12.4629 60.4676 12.4629H60.1574C58.5035 12.4629 57.8574 13.5225 57.8574 15.2023V20.3709C57.8574 22.645 59.072 23.1361 60.1574 23.1361H60.4676C62.1215 23.1361 62.7676 22.0248 62.7934 20.3709ZM56.0226 14.5304V20.9394C56.0226 22.154 56.3327 23.1619 57.0563 23.9113C57.7282 24.5833 58.7619 24.9451 60.0282 24.9451H60.7001C63.1294 24.9451 64.7058 23.3945 64.7058 20.9394V14.5304C64.7058 11.8944 63.3103 10.473 60.7001 10.473H60.0282C57.3923 10.473 56.0226 11.8944 56.0226 14.5304ZM60.7001 24.6091H60.0282C58.8136 24.6091 57.9091 24.299 57.263 23.6529C56.617 23.0068 56.281 22.1023 56.281 20.9394V14.5304C56.281 12.0753 57.599 10.7832 60.0282 10.7832H60.7001C63.1552 10.7832 64.3698 12.0495 64.3698 14.5304V20.9394C64.3698 22.0248 64.0339 23.0068 63.3361 23.6788C62.6642 24.2473 61.7597 24.6091 60.7001 24.6091ZM78.9711 20.3192V9.46517C78.9711 9.33596 79.0744 9.23259 79.2036 9.23259H82.1497C82.2789 9.23259 82.3823 9.33596 82.3823 9.46517V21.1462C82.3823 24.8675 80.3407 26.5473 76.4901 26.5473C72.8463 26.5473 70.5721 25.1001 70.5721 21.1462V9.46517C70.5721 9.33596 70.6755 9.23259 70.8047 9.23259H73.7766C73.9059 9.23259 74.0092 9.33596 74.0092 9.46517V20.3192C74.0092 22.5675 75.2755 23.0585 76.3351 23.0585H76.6452C78.2475 23.0585 78.9711 21.9731 78.9711 20.3192ZM72.1744 10.8865V20.9394C72.1744 23.2653 73.7508 24.9451 76.2059 24.9451H76.8519C79.307 24.9451 80.9093 23.1877 80.9093 20.9394V10.8865C80.9093 10.6539 80.5992 10.6281 80.5992 10.8865V20.9394C80.5992 23.0585 79.0744 24.6091 76.8519 24.6091H76.2059C74.0351 24.6091 72.4845 23.2136 72.4845 20.9394V10.8865C72.4845 10.6539 72.1744 10.6539 72.1744 10.8865ZM94.0891 9.46517C94.0891 9.33596 94.1925 9.23259 94.3217 9.23259H97.2937C97.4229 9.23259 97.5262 9.33596 97.5262 9.46517V26.0563C97.5262 26.1855 97.4229 26.2889 97.2937 26.2889H94.4251C94.3217 26.2889 94.2184 26.2372 94.1925 26.1597L90.4195 17.6574V26.0563C90.4195 26.1855 90.3161 26.2889 90.1869 26.2889H87.2408C87.1116 26.2889 87.034 26.1855 87.034 26.0563V9.46517C87.034 9.33596 87.1116 9.23259 87.2408 9.23259H90.2902C90.3936 9.23259 90.4453 9.31011 90.4711 9.3618L94.0891 17.7091V9.46517ZM95.9498 24.7383V10.7832C95.9498 10.6023 95.6139 10.5506 95.6139 10.7832V24.0664L88.8689 10.7315C88.7914 10.6281 88.5846 10.6281 88.5846 10.7832V24.7125C88.5846 24.9451 88.8947 24.9451 88.8947 24.7125V11.4551L95.6139 24.7642C95.7172 24.9451 95.9498 24.8934 95.9498 24.7383ZM109.052 9.23259C110.809 9.23259 112.127 9.7236 113.006 10.6798C113.781 11.5326 114.169 12.7989 114.169 14.3495V21.1978C114.169 24.3248 112.36 26.2889 109.052 26.2889H102.591C102.462 26.2889 102.385 26.1855 102.385 26.0563V9.46517C102.385 9.33596 102.462 9.23259 102.591 9.23259H109.052ZM110.784 20.4226V15.1248C110.784 13.4967 109.931 12.4629 108.122 12.4629H105.796V23.0585H108.122C109.672 23.0585 110.784 22.0507 110.784 20.4226ZM103.961 10.809V24.7125C103.961 24.8158 104.065 24.8417 104.116 24.8417H108.329C111.301 24.8417 112.644 23.0585 112.644 21.4046V14.7888C112.644 12.0495 111.197 10.6539 108.251 10.6539H104.116C104.065 10.6539 103.961 10.6798 103.961 10.809ZM112.334 14.7888V21.4046C112.334 23.472 110.267 24.5574 108.329 24.5574H104.271V10.9899H108.251C110.965 10.9899 112.334 12.2045 112.334 14.7888ZM125.359 9.23259C127.116 9.23259 128.434 9.7236 129.313 10.6798C130.088 11.5326 130.476 12.7989 130.476 14.3495V21.1978C130.476 24.3248 128.667 26.2889 125.359 26.2889H118.898C118.769 26.2889 118.692 26.1855 118.692 26.0563V9.46517C118.692 9.33596 118.769 9.23259 118.898 9.23259H125.359ZM127.091 20.4226V15.1248C127.091 13.4967 126.238 12.4629 124.429 12.4629H122.103V23.0585H124.429C125.979 23.0585 127.091 22.0507 127.091 20.4226ZM120.268 10.809V24.7125C120.268 24.8158 120.371 24.8417 120.423 24.8417H124.635C127.607 24.8417 128.951 23.0585 128.951 21.4046V14.7888C128.951 12.0495 127.504 10.6539 124.558 10.6539H120.423C120.371 10.6539 120.268 10.6798 120.268 10.809ZM128.641 14.7888V21.4046C128.641 23.472 126.574 24.5574 124.635 24.5574H120.578V10.9899H124.558C127.271 10.9899 128.641 12.2045 128.641 14.7888ZM135.205 26.2889C135.076 26.2889 134.998 26.1855 134.998 26.0563V9.46517C134.998 9.33596 135.076 9.23259 135.205 9.23259H138.151C138.28 9.23259 138.384 9.33596 138.384 9.46517V26.0563C138.384 26.1855 138.28 26.2889 138.151 26.2889H135.205ZM136.549 10.7832V24.7125C136.549 24.9451 136.833 24.9451 136.833 24.7125V10.7832C136.833 10.6023 136.549 10.6023 136.549 10.7832ZM148.488 20.0866C148.359 20.0866 148.256 19.9832 148.256 19.854V17.0888C148.256 16.9596 148.359 16.8562 148.488 16.8562H154.406C154.536 16.8562 154.639 16.9596 154.639 17.0888V21.1462C154.639 24.9451 152.597 26.5473 148.747 26.5473C145.155 26.5473 142.803 25.126 142.803 21.1462V14.3495C142.803 10.6023 144.896 9 148.747 9C152.365 9 154.639 10.3955 154.639 14.3495V14.8922C154.639 15.0214 154.536 15.1248 154.406 15.1248H151.434C151.305 15.1248 151.202 15.0214 151.202 14.8922V14.5562C151.202 12.9798 150.194 12.4629 148.876 12.4629H148.566C147.713 12.4629 147.145 12.6955 146.757 13.2124C146.395 13.7034 146.266 14.3495 146.266 15.2023V20.3192C146.266 22.5675 147.481 23.0585 148.566 23.0585H148.876C150.452 23.0585 151.202 21.9731 151.202 20.3192V20.0866H148.488ZM144.379 20.9653C144.379 23.8338 145.775 24.8934 148.721 24.8934C151.822 24.8934 153.088 23.6012 153.088 20.4226V18.4843C153.088 18.4068 153.037 18.3034 152.985 18.3034H149.393C149.16 18.3034 149.212 18.6394 149.393 18.6394H152.778V20.4226C152.778 23.1877 151.719 24.6091 148.721 24.6091C146.24 24.6091 144.69 23.7304 144.69 20.9653V14.7371C144.69 12.0753 145.904 10.8865 148.721 10.8865C150.814 10.8865 152.727 12.0495 152.572 13.8326C152.572 14.0394 152.856 14.091 152.908 13.8585C152.908 11.5843 150.84 10.6023 148.721 10.6023C146.137 10.6023 144.379 11.5326 144.379 14.7371V20.9653ZM159.239 26.2889C159.11 26.2889 159.032 26.1855 159.032 26.0563V9.46517C159.032 9.33596 159.11 9.23259 159.239 9.23259H162.185C162.314 9.23259 162.418 9.33596 162.418 9.46517V26.0563C162.418 26.1855 162.314 26.2889 162.185 26.2889H159.239ZM160.583 10.7832V24.7125C160.583 24.9451 160.867 24.9451 160.867 24.7125V10.7832C160.867 10.6023 160.583 10.6023 160.583 10.7832ZM169.835 12.4629H166.165C166.036 12.4629 165.932 12.3596 165.932 12.2304V9.46517C165.932 9.33596 166.036 9.23259 166.165 9.23259H176.941C177.071 9.23259 177.174 9.33596 177.174 9.46517V12.2304C177.174 12.3596 177.071 12.4629 176.941 12.4629H173.272V26.0563C173.272 26.1855 173.168 26.2889 173.039 26.2889H170.067C169.938 26.2889 169.835 26.1855 169.835 26.0563V12.4629ZM175.365 10.6539H167.56C167.38 10.6539 167.38 10.9899 167.56 10.9899H171.385V24.6866C171.385 24.8675 171.721 24.8675 171.721 24.6866V10.9899H175.365C175.623 10.9899 175.598 10.6539 175.365 10.6539ZM184.022 9.38764C184.048 9.31011 184.1 9.23259 184.203 9.23259H187.408C187.511 9.23259 187.563 9.31011 187.589 9.38764L192.06 26.0046C192.085 26.1597 191.982 26.2889 191.827 26.2889H188.881C188.803 26.2889 188.726 26.2372 188.7 26.1338L187.692 22.5158H183.919L182.937 26.1338C182.911 26.2372 182.859 26.2889 182.756 26.2889H179.784C179.629 26.2889 179.526 26.1597 179.552 26.0046L184.022 9.38764ZM184.746 19.3113H186.891L185.78 15.409L184.746 19.3113ZM188.726 20.836L189.915 24.7125C189.966 24.8675 190.25 24.8417 190.173 24.6349L186.038 10.8865C185.961 10.5506 185.521 10.5247 185.444 10.8865L181.438 24.6349C181.361 24.8158 181.645 24.8934 181.722 24.7383L182.859 20.836H188.726ZM182.937 20.5001L185.754 10.9899L188.622 20.5001H182.937ZM198.83 9.23259C198.96 9.23259 199.063 9.33596 199.063 9.46517V23.0327H204.645C204.774 23.0327 204.878 23.1361 204.878 23.2653V26.0563C204.878 26.1855 204.774 26.2889 204.645 26.2889H195.884C195.755 26.2889 195.678 26.1855 195.678 26.0563V9.46517C195.678 9.33596 195.755 9.23259 195.884 9.23259H198.83ZM197.228 10.809V24.7125C197.228 24.7642 197.28 24.8417 197.383 24.8417H203.353C203.56 24.8417 203.56 24.5057 203.353 24.5057H197.512V10.809C197.512 10.6281 197.228 10.6023 197.228 10.809Z" fill="white"/>
<path d="M1.77149 11.0698C2.45873 11.0698 3.01585 10.5127 3.01585 9.82541C3.01585 9.13817 2.45873 8.58105 1.77149 8.58105C1.08425 8.58105 0.52713 9.13817 0.52713 9.82541C0.52713 10.5127 1.08425 11.0698 1.77149 11.0698Z" fill="white"/>
<path d="M1.24436 15.2778C1.9316 15.2778 2.48872 14.7207 2.48872 14.0334C2.48872 13.3462 1.9316 12.7891 1.24436 12.7891C0.557119 12.7891 0 13.3462 0 14.0334C0 14.7207 0.557119 15.2778 1.24436 15.2778Z" fill="white"/>
<path d="M3.301 7.41426C3.98824 7.41426 4.54536 6.85714 4.54536 6.1699C4.54536 5.48266 3.98824 4.92554 3.301 4.92554C2.61376 4.92554 2.05664 5.48266 2.05664 6.1699C2.05664 6.85714 2.61376 7.41426 3.301 7.41426Z" fill="white"/>
<path d="M19.1148 9.67866C19.802 9.67866 20.3591 9.12154 20.3591 8.4343C20.3591 7.74706 19.802 7.18994 19.1148 7.18994C18.4275 7.18994 17.8704 7.74706 17.8704 8.4343C17.8704 9.12154 18.4275 9.67866 19.1148 9.67866Z" fill="white"/>
<path d="M26.2352 12.1152C26.9225 12.1152 27.4796 11.5581 27.4796 10.8708C27.4796 10.1836 26.9225 9.62646 26.2352 9.62646C25.548 9.62646 24.9909 10.1836 24.9909 10.8708C24.9909 11.5581 25.548 12.1152 26.2352 12.1152Z" fill="white"/>
<path d="M25.7254 17.1357C26.4126 17.1357 26.9698 16.5786 26.9698 15.8913C26.9698 15.2041 26.4126 14.647 25.7254 14.647C25.0382 14.647 24.481 15.2041 24.481 15.8913C24.481 16.5786 25.0382 17.1357 25.7254 17.1357Z" fill="white"/>
<path d="M22.554 24.7661C23.2413 24.7661 23.7984 24.2089 23.7984 23.5217C23.7984 22.8345 23.2413 22.2773 22.554 22.2773C21.8668 22.2773 21.3097 22.8345 21.3097 23.5217C21.3097 24.2089 21.8668 24.7661 22.554 24.7661Z" fill="white"/>
<path d="M20.722 4.13911C21.4093 4.13911 21.9664 3.58199 21.9664 2.89475C21.9664 2.20751 21.4093 1.65039 20.722 1.65039C20.0348 1.65039 19.4777 2.20751 19.4777 2.89475C19.4777 3.58199 20.0348 4.13911 20.722 4.13911Z" fill="white"/>
<path d="M23.8848 7.96723C24.572 7.96723 25.1291 7.41012 25.1291 6.72287C25.1291 6.03563 24.572 5.47852 23.8848 5.47852C23.1975 5.47852 22.6404 6.03563 22.6404 6.72287C22.6404 7.41012 23.1975 7.96723 23.8848 7.96723Z" fill="white"/>
<path d="M12.4695 12.0029C13.1568 12.0029 13.7139 11.4458 13.7139 10.7585C13.7139 10.0713 13.1568 9.51416 12.4695 9.51416C11.7823 9.51416 11.2252 10.0713 11.2252 10.7585C11.2252 11.4458 11.7823 12.0029 12.4695 12.0029Z" fill="white"/>
<path d="M17.5075 2.48872C18.1947 2.48872 18.7518 1.9316 18.7518 1.24436C18.7518 0.557119 18.1947 0 17.5075 0C16.8202 0 16.2631 0.557119 16.2631 1.24436C16.2631 1.9316 16.8202 2.48872 17.5075 2.48872Z" fill="white"/>
<path d="M6.75757 4.13911C7.44481 4.13911 8.00193 3.58199 8.00193 2.89475C8.00193 2.20751 7.44481 1.65039 6.75757 1.65039C6.07033 1.65039 5.51321 2.20751 5.51321 2.89475C5.51321 3.58199 6.07033 4.13911 6.75757 4.13911Z" fill="white"/>
<path d="M8.55496 33.1569C8.24387 33.1569 8.00192 32.9149 8.00192 32.6125V17.3L2.03936 10.8708C1.83197 10.6461 1.84061 10.2918 2.05664 10.0844C2.28996 9.87702 2.63562 9.88566 2.84301 10.119L8.96111 16.7124C9.05616 16.8074 9.10801 16.9457 9.10801 17.0753V32.6039C9.10801 32.9236 8.86605 33.1569 8.55496 33.1569Z" fill="white"/>
<path d="M11.8646 35.9997C11.5535 35.9997 11.3116 35.7491 11.3116 35.4381V14.9666L2.91215 6.56719C2.69611 6.3598 2.69611 5.99686 2.91215 5.78947C3.12818 5.57343 3.47384 5.57343 3.68987 5.78947L12.2535 14.3531C12.3572 14.4568 12.4177 14.595 12.4177 14.7419V35.4381C12.4177 35.7405 12.1671 35.9997 11.8646 35.9997Z" fill="white"/>
<path d="M15.5545 36.0001C15.2434 36.0001 15.0014 35.7495 15.0014 35.4384V7.79466C15.0014 7.64776 15.0533 7.50086 15.1656 7.4058L19.3221 3.24929C19.5382 3.0419 19.8838 3.0419 20.0999 3.24929C20.3159 3.46533 20.3159 3.81963 20.0999 4.02702L16.1075 8.02798V35.4384C16.1075 35.7409 15.8656 36.0001 15.5545 36.0001Z" fill="white"/>
<path d="M19.0802 33.1571C18.7691 33.1571 18.5185 32.9238 18.5185 32.6127V18.0951C18.5185 17.9482 18.5876 17.81 18.6827 17.7149L25.881 10.5167C26.1056 10.292 26.4513 10.292 26.6673 10.5167C26.8834 10.724 26.8834 11.0783 26.6673 11.2944L19.6332 18.3285V32.6127C19.6332 32.9238 19.3913 33.1571 19.0802 33.1571Z" fill="white"/>
<path d="M23.8934 13.8433C23.7465 13.8433 23.6083 13.8001 23.5046 13.6964L18.9333 9.12515C18.7172 8.90047 18.7172 8.55482 18.9333 8.33878C19.1407 8.12275 19.495 8.12275 19.7196 8.33878L24.2823 12.9014C24.4897 13.1261 24.4897 13.4631 24.2823 13.6964C24.1699 13.8001 24.023 13.8433 23.8934 13.8433Z" fill="white"/>
<path d="M8.14019 11.3204C7.99328 11.3204 7.85502 11.2686 7.74268 11.1563C7.52665 10.9229 7.52665 10.5859 7.74268 10.3612L17.1791 0.924855C17.3951 0.700179 17.7494 0.700179 17.9654 0.924855C18.1815 1.14089 18.1815 1.48654 17.9654 1.70258L8.52905 11.1563C8.41671 11.2599 8.27845 11.3204 8.14019 11.3204Z" fill="white"/>
<path d="M11.2165 8.22661C11.0782 8.22661 10.94 8.17476 10.8363 8.06242L6.96494 4.19108C6.74891 3.98369 6.74891 3.62075 6.96494 3.41336C7.17234 3.20596 7.52663 3.20596 7.74267 3.41336L11.614 7.2847C11.8214 7.49209 11.8214 7.85503 11.614 8.06242C11.5017 8.17476 11.3634 8.22661 11.2165 8.22661Z" fill="white"/>
<path d="M11.2424 2.71333C11.9297 2.71333 12.4868 2.15621 12.4868 1.46897C12.4868 0.781728 11.9297 0.224609 11.2424 0.224609C10.5552 0.224609 9.99808 0.781728 9.99808 1.46897C9.99808 2.15621 10.5552 2.71333 11.2424 2.71333Z" fill="white"/>
<path d="M14.1805 5.26279C14.0423 5.26279 13.904 5.21095 13.7917 5.09861L11.4498 2.75679C11.2338 2.5494 11.2338 2.20374 11.4498 1.98771C11.6659 1.77167 12.0202 1.77167 12.2362 1.98771L14.578 4.32952C14.7941 4.53692 14.7941 4.89986 14.578 5.10725C14.4657 5.21095 14.3188 5.26279 14.1805 5.26279Z" fill="white"/>
<path d="M15.4854 14.2843C15.3385 14.2843 15.2002 14.2324 15.0965 14.1115L12.4695 11.4931C12.2535 11.2857 12.2535 10.9401 12.4695 10.724C12.6769 10.508 13.0312 10.508 13.2559 10.724L15.8742 13.351C16.0903 13.5584 16.0903 13.9127 15.8742 14.1201C15.7619 14.2324 15.6236 14.2843 15.4854 14.2843Z" fill="white"/>
<path d="M19.037 14.6301C19.7242 14.6301 20.2813 14.073 20.2813 13.3857C20.2813 12.6985 19.7242 12.1414 19.037 12.1414C18.3497 12.1414 17.7926 12.6985 17.7926 13.3857C17.7926 14.073 18.3497 14.6301 19.037 14.6301Z" fill="white"/>
<path d="M21.4952 16.0569C21.3569 16.0569 21.21 15.9964 21.1063 15.8841L19.162 13.9484C18.946 13.7237 18.946 13.3867 19.162 13.162C19.3781 12.946 19.7324 12.946 19.9484 13.162L21.8927 15.0977C22.1174 15.3224 22.1174 15.668 21.8927 15.8841C21.7804 15.9964 21.6421 16.0569 21.4952 16.0569Z" fill="white"/>
<path d="M20.6615 10.6288C20.5146 10.6288 20.3764 10.577 20.2727 10.456C20.0566 10.2486 20.0566 9.89433 20.2727 9.66966L23.2712 6.67974C23.4959 6.45506 23.8416 6.45506 24.0576 6.67974C24.2736 6.89577 24.2736 7.24143 24.0576 7.45746L21.059 10.456C20.9467 10.577 20.7998 10.6288 20.6615 10.6288Z" fill="white"/>
<path d="M8.54631 21.8975C8.40805 21.8975 8.26979 21.8456 8.15745 21.7333L0.84684 14.414C0.630806 14.2066 0.630806 13.861 0.84684 13.6449C1.06287 13.4289 1.40853 13.4289 1.63321 13.6449L8.94382 20.9555C9.15985 21.1629 9.15985 21.5259 8.94382 21.7333C8.84012 21.8456 8.69322 21.8975 8.54631 21.8975Z" fill="white"/>
<path d="M3.51703 22.3554C4.20427 22.3554 4.76139 21.7983 4.76139 21.1111C4.76139 20.4238 4.20427 19.8667 3.51703 19.8667C2.82979 19.8667 2.27267 20.4238 2.27267 21.1111C2.27267 21.7983 2.82979 22.3554 3.51703 22.3554Z" fill="white"/>
<path d="M8.53769 26.6848C8.39079 26.6848 8.25253 26.6243 8.14019 26.5119L3.11955 21.4999C2.90351 21.2839 2.90351 20.9296 3.11955 20.7222C3.33558 20.4975 3.68124 20.4975 3.90591 20.7222L8.91791 25.7342C9.13395 25.9416 9.13395 26.3046 8.91791 26.5206C8.81422 26.6243 8.67595 26.6848 8.53769 26.6848Z" fill="white"/>
<path d="M19.1407 23.1849C18.9938 23.1849 18.8555 23.1331 18.7432 23.0208C18.5358 22.8047 18.5358 22.4504 18.7432 22.243L24.9909 16.004C25.1983 15.7793 25.5526 15.7793 25.7686 16.004C25.976 16.2113 25.976 16.557 25.7686 16.7817L19.5295 23.0294C19.4258 23.1331 19.2789 23.1849 19.1407 23.1849Z" fill="white"/>
<path d="M19.0802 27.5487C18.9419 27.5487 18.795 27.5055 18.6913 27.3931C18.4753 27.1685 18.4753 26.8314 18.6913 26.6068L22.1738 23.1243C22.3812 22.9169 22.7355 22.9169 22.9602 23.1243C23.1676 23.349 23.1676 23.6946 22.9602 23.9193L19.4777 27.3931C19.3654 27.5141 19.2184 27.5487 19.0802 27.5487Z" fill="white"/>
</svg>
